<svg xmlns="http://www.w3.org/2000/svg" viewBox="0 0 128 128" id="barclays">
  <path d="M37.74,25.86a6.77,6.77,0,0,0-1.13-5.56,11.36,11.36,0,0,0-7.31-4.71A22.55,22.55,0,0,0,24.19,15C19.59,15,12.88,16.52,7,23.77,3.22,28.5,2,33.62,1.25,38-.9,51.06-2.12,75.74,13.8,94.39a2,2,0,0,0,2.82.22,66.34,66.34,0,0,0,8-8.15c-.27,3.15-1.44,7.6-5,13.07a2,2,0,0,0,2.79,2.75c.56-.37,10.92-7.33,17.14-15.66a69.27,69.27,0,0,1-12.29,19.18,2,2,0,0,0,.14,2.8c.64.59,15.79,14.45,35.91,19.34a2,2,0,0,0,.46.06h.95a2,2,0,0,0,.47-.06C85.3,123,100,109.16,100.64,108.57a2,2,0,0,0,.11-2.78A69.32,69.32,0,0,1,88.44,86.6c6.22,8.33,16.59,15.3,17.15,15.67a2,2,0,0,0,2.92-.76,2.2,2.2,0,0,0,.21-.9,2,2,0,0,0-.47-1.29c-3.41-5.38-4.56-9.76-4.82-12.86a66.32,66.32,0,0,0,8,8.15,2,2,0,0,0,2.82-.22C130.12,75.75,128.9,51.06,126.75,38c-.72-4.38-2-9.5-5.79-14.24C115.12,16.52,108.41,15,103.81,15a22.55,22.55,0,0,0-5.11.59,11.35,11.35,0,0,0-7.31,4.71,6.77,6.77,0,0,0-1.13,5.56A8.08,8.08,0,0,0,93,29.95a7.29,7.29,0,0,1-3,1.78c-5.26.82-9.15-.71-11.52-4.54a18,18,0,0,1-2.35-8.89C76.16,1.32,65.73,0,62.54,0a12.34,12.34,0,0,0-1.65.11,15.5,15.5,0,0,0-7,1.78h-.79c-8,0-13.31,3.51-14.2,9.38a2,2,0,0,0,2.52,2.23,18.1,18.1,0,0,1,4.38-.56,8.77,8.77,0,0,1,5.4,1.47c1.48,1.13,2.13,2.9,2,5.4C52.81,25.36,50.51,32,41.41,32A23.46,23.46,0,0,1,38,31.72a7.31,7.31,0,0,1-3-1.78A8.09,8.09,0,0,0,37.74,25.86Z"></path>
</svg>
